<svg width="90" height="47" viewBox="0 0 90 47" fill="none" xmlns="http://www.w3.org/2000/svg">
<path d="M40.344 18.18C39.42 18.18 38.562 18.018 37.77 17.694C36.978 17.37 36.288 16.92 35.7 16.344C35.124 15.756 34.674 15.066 34.35 14.274C34.026 13.482 33.864 12.624 33.864 11.7C33.864 10.776 34.026 9.918 34.35 9.126C34.674 8.334 35.124 7.65 35.7 7.074C36.288 6.486 36.978 6.03 37.77 5.706C38.562 5.382 39.42 5.22 40.344 5.22C40.98 5.22 41.592 5.298 42.18 5.454C42.78 5.598 43.314 5.82 43.782 6.12C43.866 6.18 43.926 6.252 43.962 6.336C44.01 6.408 44.034 6.486 44.034 6.57C44.034 6.738 43.98 6.876 43.872 6.984C43.764 7.08 43.65 7.128 43.53 7.128C43.47 7.128 43.41 7.122 43.35 7.11C43.302 7.086 43.254 7.062 43.206 7.038C42.798 6.81 42.354 6.63 41.874 6.498C41.394 6.366 40.884 6.3 40.344 6.3C39.312 6.3 38.394 6.534 37.59 7.002C36.786 7.47 36.156 8.112 35.7 8.928C35.244 9.744 35.016 10.668 35.016 11.7C35.016 12.732 35.244 13.656 35.7 14.472C36.156 15.288 36.786 15.93 37.59 16.398C38.394 16.866 39.312 17.1 40.344 17.1C40.884 17.1 41.424 17.022 41.964 16.866C42.516 16.71 42.99 16.5 43.386 16.236L43.296 16.614V12.474L43.566 12.726H40.452C40.296 12.726 40.164 12.672 40.056 12.564C39.948 12.456 39.894 12.33 39.894 12.186C39.894 12.018 39.948 11.886 40.056 11.79C40.164 11.694 40.296 11.646 40.452 11.646H43.89C44.046 11.646 44.172 11.7 44.268 11.808C44.376 11.904 44.43 12.03 44.43 12.186V16.524C44.43 16.62 44.406 16.71 44.358 16.794C44.31 16.878 44.244 16.95 44.16 17.01C43.632 17.37 43.038 17.658 42.378 17.874C41.73 18.078 41.052 18.18 40.344 18.18ZM56.4056 6.336C56.5496 6.432 56.6336 6.558 56.6576 6.714C56.6816 6.858 56.6456 7.002 56.5496 7.146C56.4656 7.254 56.3576 7.314 56.2256 7.326C56.0936 7.338 55.9676 7.314 55.8476 7.254C55.3916 6.954 54.8996 6.72 54.3716 6.552C53.8556 6.384 53.2976 6.3 52.6976 6.3C51.9656 6.3 51.2816 6.432 50.6456 6.696C50.0216 6.948 49.4756 7.32 49.0076 7.812C48.5396 8.292 48.1736 8.862 47.9096 9.522C47.6576 10.182 47.5316 10.908 47.5316 11.7C47.5316 12.516 47.6636 13.26 47.9276 13.932C48.1916 14.592 48.5576 15.162 49.0256 15.642C49.5056 16.122 50.0576 16.488 50.6816 16.74C51.3056 16.992 51.9776 17.118 52.6976 17.118C53.2856 17.118 53.8376 17.034 54.3536 16.866C54.8816 16.698 55.3736 16.47 55.8296 16.182C55.9496 16.11 56.0756 16.086 56.2076 16.11C56.3516 16.122 56.4656 16.188 56.5496 16.308C56.6576 16.44 56.6936 16.584 56.6576 16.74C56.6336 16.884 56.5556 16.998 56.4236 17.082C56.1236 17.274 55.7696 17.454 55.3616 17.622C54.9536 17.79 54.5216 17.922 54.0656 18.018C53.6096 18.126 53.1536 18.18 52.6976 18.18C51.8336 18.18 51.0236 18.024 50.2676 17.712C49.5116 17.4 48.8396 16.962 48.2516 16.398C47.6636 15.822 47.2016 15.138 46.8656 14.346C46.5416 13.554 46.3796 12.672 46.3796 11.7C46.3796 10.764 46.5416 9.906 46.8656 9.126C47.1896 8.334 47.6396 7.65 48.2156 7.074C48.7916 6.498 49.4636 6.048 50.2316 5.724C50.9996 5.4 51.8216 5.238 52.6976 5.238C53.3816 5.238 54.0416 5.334 54.6776 5.526C55.3136 5.718 55.8896 5.988 56.4056 6.336Z" fill="#E5E5E5"/>
<path d="M7.908 36.06C7.668 35.428 7.268 34.924 6.708 34.548C6.156 34.172 5.5 33.984 4.74 33.984C4.076 33.984 3.476 34.14 2.94 34.452C2.404 34.764 1.98 35.208 1.668 35.784C1.356 36.36 1.2 37.032 1.2 37.8C1.2 38.568 1.356 39.24 1.668 39.816C1.98 40.392 2.404 40.836 2.94 41.148C3.476 41.452 4.076 41.604 4.74 41.604C5.38 41.604 5.96 41.46 6.48 41.172C7 40.884 7.416 40.476 7.728 39.948C8.04 39.412 8.212 38.788 8.244 38.076H4.488V37.62H8.796V37.98C8.772 38.764 8.584 39.468 8.232 40.092C7.88 40.716 7.4 41.204 6.792 41.556C6.184 41.908 5.5 42.084 4.74 42.084C3.964 42.084 3.264 41.904 2.64 41.544C2.016 41.176 1.528 40.668 1.176 40.02C0.824 39.364 0.648 38.624 0.648 37.8C0.648 36.968 0.824 36.228 1.176 35.58C1.528 34.924 2.016 34.416 2.64 34.056C3.264 33.688 3.964 33.504 4.74 33.504C5.644 33.504 6.424 33.732 7.08 34.188C7.744 34.636 8.228 35.26 8.532 36.06H7.908ZM10.7053 34.032C10.5773 34.032 10.4693 33.992 10.3813 33.912C10.2933 33.824 10.2493 33.708 10.2493 33.564C10.2493 33.428 10.2933 33.316 10.3813 33.228C10.4693 33.14 10.5773 33.096 10.7053 33.096C10.8333 33.096 10.9413 33.14 11.0293 33.228C11.1173 33.316 11.1613 33.428 11.1613 33.564C11.1613 33.708 11.1173 33.824 11.0293 33.912C10.9413 33.992 10.8333 34.032 10.7053 34.032ZM10.9693 35.484V42H10.4293V35.484H10.9693ZM15.1208 42.096C14.3928 42.096 13.7968 41.936 13.3328 41.616C12.8768 41.296 12.6208 40.84 12.5648 40.248H13.1168C13.1568 40.672 13.3488 41.008 13.6928 41.256C14.0448 41.504 14.5208 41.628 15.1208 41.628C15.6168 41.628 16.0088 41.504 16.2968 41.256C16.5928 41 16.7408 40.688 16.7408 40.32C16.7408 40.064 16.6608 39.856 16.5008 39.696C16.3488 39.528 16.1568 39.4 15.9248 39.312C15.6928 39.224 15.3768 39.128 14.9768 39.024C14.4968 38.896 14.1088 38.772 13.8128 38.652C13.5168 38.524 13.2648 38.336 13.0568 38.088C12.8488 37.84 12.7448 37.508 12.7448 37.092C12.7448 36.788 12.8368 36.508 13.0208 36.252C13.2048 35.988 13.4608 35.78 13.7888 35.628C14.1168 35.476 14.4888 35.4 14.9048 35.4C15.5848 35.4 16.1328 35.572 16.5488 35.916C16.9728 36.252 17.2008 36.72 17.2328 37.32H16.6928C16.6688 36.888 16.5008 36.536 16.1888 36.264C15.8768 35.992 15.4448 35.856 14.8928 35.856C14.4288 35.856 14.0448 35.976 13.7408 36.216C13.4368 36.456 13.2848 36.748 13.2848 37.092C13.2848 37.396 13.3688 37.644 13.5368 37.836C13.7128 38.02 13.9248 38.164 14.1728 38.268C14.4288 38.364 14.7648 38.468 15.1808 38.58C15.6368 38.7 16.0008 38.82 16.2728 38.94C16.5528 39.052 16.7888 39.22 16.9808 39.444C17.1728 39.66 17.2688 39.952 17.2688 40.32C17.2688 40.656 17.1768 40.96 16.9928 41.232C16.8088 41.504 16.5528 41.716 16.2248 41.868C15.8968 42.02 15.5288 42.096 15.1208 42.096ZM24.7817 38.304C24.7817 38.592 24.7737 38.808 24.7577 38.952H19.1297C19.1457 39.536 19.2737 40.028 19.5137 40.428C19.7537 40.828 20.0697 41.128 20.4617 41.328C20.8537 41.528 21.2817 41.628 21.7457 41.628C22.3857 41.628 22.9217 41.472 23.3537 41.16C23.7857 40.84 24.0577 40.408 24.1697 39.864H24.7337C24.6057 40.528 24.2777 41.068 23.7497 41.484C23.2217 41.892 22.5537 42.096 21.7457 42.096C21.1377 42.096 20.5937 41.96 20.1137 41.688C19.6337 41.416 19.2577 41.028 18.9857 40.524C18.7137 40.012 18.5777 39.416 18.5777 38.736C18.5777 38.056 18.7097 37.464 18.9737 36.96C19.2457 36.456 19.6217 36.072 20.1017 35.808C20.5817 35.536 21.1297 35.4 21.7457 35.4C22.3697 35.4 22.9097 35.536 23.3657 35.808C23.8297 36.072 24.1817 36.428 24.4217 36.876C24.6617 37.316 24.7817 37.792 24.7817 38.304ZM24.2417 38.508C24.2657 37.932 24.1617 37.444 23.9297 37.044C23.7057 36.644 23.3977 36.348 23.0057 36.156C22.6137 35.956 22.1897 35.856 21.7337 35.856C21.2777 35.856 20.8537 35.956 20.4617 36.156C20.0777 36.348 19.7617 36.644 19.5137 37.044C19.2737 37.444 19.1457 37.932 19.1297 38.508H24.2417ZM26.9537 33.12V42H26.4137V33.12H26.9537ZM34.8012 38.304C34.8012 38.592 34.7932 38.808 34.7772 38.952H29.1492C29.1652 39.536 29.2932 40.028 29.5332 40.428C29.7732 40.828 30.0892 41.128 30.4812 41.328C30.8732 41.528 31.3012 41.628 31.7652 41.628C32.4052 41.628 32.9412 41.472 33.3732 41.16C33.8052 40.84 34.0772 40.408 34.1892 39.864H34.7532C34.6252 40.528 34.2972 41.068 33.7692 41.484C33.2412 41.892 32.5732 42.096 31.7652 42.096C31.1572 42.096 30.6132 41.96 30.1332 41.688C29.6532 41.416 29.2772 41.028 29.0052 40.524C28.7332 40.012 28.5972 39.416 28.5972 38.736C28.5972 38.056 28.7292 37.464 28.9932 36.96C29.2652 36.456 29.6412 36.072 30.1212 35.808C30.6012 35.536 31.1492 35.4 31.7652 35.4C32.3892 35.4 32.9292 35.536 33.3852 35.808C33.8492 36.072 34.2012 36.428 34.4412 36.876C34.6812 37.316 34.8012 37.792 34.8012 38.304ZM34.2612 38.508C34.2852 37.932 34.1812 37.444 33.9492 37.044C33.7252 36.644 33.4172 36.348 33.0252 36.156C32.6332 35.956 32.2092 35.856 31.7532 35.856C31.2972 35.856 30.8732 35.956 30.4812 36.156C30.0972 36.348 29.7812 36.644 29.5332 37.044C29.2932 37.444 29.1652 37.932 29.1492 38.508H34.2612ZM39.4839 37.8C39.4839 36.968 39.6559 36.228 39.9999 35.58C40.3519 34.924 40.8319 34.412 41.4399 34.044C42.0559 33.676 42.7439 33.492 43.5039 33.492C44.4639 33.492 45.2719 33.716 45.9279 34.164C46.5839 34.612 47.0639 35.24 47.3679 36.048H46.7439C46.5039 35.408 46.1039 34.904 45.5439 34.536C44.9919 34.16 44.3119 33.972 43.5039 33.972C42.8559 33.972 42.2679 34.128 41.7399 34.44C41.2119 34.744 40.7959 35.188 40.4919 35.772C40.1879 36.348 40.0359 37.024 40.0359 37.8C40.0359 38.568 40.1879 39.24 40.4919 39.816C40.7959 40.384 41.2119 40.824 41.7399 41.136C42.2679 41.448 42.8559 41.604 43.5039 41.604C44.3119 41.604 44.9919 41.42 45.5439 41.052C46.1039 40.676 46.5039 40.168 46.7439 39.528H47.3679C47.0639 40.336 46.5839 40.964 45.9279 41.412C45.2719 41.86 44.4639 42.084 43.5039 42.084C42.7439 42.084 42.0559 41.904 41.4399 41.544C40.8319 41.176 40.3519 40.668 39.9999 40.02C39.6559 39.364 39.4839 38.624 39.4839 37.8ZM48.7183 38.736C48.7183 38.064 48.8503 37.476 49.1143 36.972C49.3863 36.468 49.7583 36.08 50.2303 35.808C50.7103 35.536 51.2543 35.4 51.8623 35.4C52.5503 35.4 53.1343 35.568 53.6143 35.904C54.0943 36.24 54.4303 36.668 54.6223 37.188V35.484H55.1623V42H54.6223V40.284C54.4303 40.812 54.0903 41.248 53.6023 41.592C53.1223 41.928 52.5423 42.096 51.8623 42.096C51.2543 42.096 50.7103 41.96 50.2303 41.688C49.7583 41.408 49.3863 41.016 49.1143 40.512C48.8503 40 48.7183 39.408 48.7183 38.736ZM54.6223 38.736C54.6223 38.168 54.5023 37.668 54.2623 37.236C54.0303 36.796 53.7103 36.46 53.3023 36.228C52.8943 35.988 52.4383 35.868 51.9343 35.868C51.4063 35.868 50.9423 35.984 50.5423 36.216C50.1423 36.44 49.8303 36.768 49.6063 37.2C49.3823 37.632 49.2703 38.144 49.2703 38.736C49.2703 39.328 49.3823 39.84 49.6063 40.272C49.8303 40.704 50.1423 41.036 50.5423 41.268C50.9503 41.5 51.4143 41.616 51.9343 41.616C52.4383 41.616 52.8943 41.5 53.3023 41.268C53.7183 41.028 54.0423 40.692 54.2743 40.26C54.5063 39.82 54.6223 39.312 54.6223 38.736ZM57.6685 36.828C57.8285 36.348 58.1125 35.984 58.5205 35.736C58.9285 35.48 59.4485 35.352 60.0805 35.352V35.916H59.9005C59.2605 35.916 58.7285 36.1 58.3045 36.468C57.8805 36.828 57.6685 37.42 57.6685 38.244V42H57.1285V35.484H57.6685V36.828ZM60.9878 38.736C60.9878 38.064 61.1198 37.476 61.3838 36.972C61.6558 36.468 62.0278 36.08 62.4998 35.808C62.9798 35.536 63.5238 35.4 64.1318 35.4C64.7958 35.4 65.3718 35.568 65.8598 35.904C66.3478 36.232 66.6918 36.66 66.8918 37.188V33.12H67.4318V42H66.8918V40.272C66.6998 40.808 66.3638 41.248 65.8838 41.592C65.4038 41.928 64.8198 42.096 64.1318 42.096C63.5238 42.096 62.9798 41.96 62.4998 41.688C62.0278 41.408 61.6558 41.016 61.3838 40.512C61.1198 40 60.9878 39.408 60.9878 38.736ZM66.8918 38.736C66.8918 38.168 66.7718 37.668 66.5318 37.236C66.2998 36.796 65.9798 36.46 65.5718 36.228C65.1638 35.988 64.7078 35.868 64.2038 35.868C63.6758 35.868 63.2118 35.984 62.8118 36.216C62.4118 36.44 62.0998 36.768 61.8758 37.2C61.6518 37.632 61.5398 38.144 61.5398 38.736C61.5398 39.328 61.6518 39.84 61.8758 40.272C62.0998 40.704 62.4118 41.036 62.8118 41.268C63.2198 41.5 63.6838 41.616 64.2038 41.616C64.7078 41.616 65.1638 41.5 65.5718 41.268C65.9878 41.028 66.3118 40.692 66.5438 40.26C66.7758 39.82 66.8918 39.312 66.8918 38.736ZM72.2661 42.096C71.6581 42.096 71.1101 41.96 70.6221 41.688C70.1341 41.416 69.7501 41.028 69.4701 40.524C69.1981 40.012 69.0621 39.416 69.0621 38.736C69.0621 38.064 69.2021 37.476 69.4821 36.972C69.7621 36.46 70.1461 36.072 70.6341 35.808C71.1301 35.536 71.6821 35.4 72.2901 35.4C72.8981 35.4 73.4461 35.536 73.9341 35.808C74.4221 36.072 74.8021 36.456 75.0741 36.96C75.3541 37.464 75.4941 38.056 75.4941 38.736C75.4941 39.416 75.3541 40.012 75.0741 40.524C74.7941 41.028 74.4061 41.416 73.9101 41.688C73.4221 41.96 72.8741 42.096 72.2661 42.096ZM72.2661 41.616C72.7381 41.616 73.1781 41.512 73.5861 41.304C74.0021 41.088 74.3341 40.764 74.5821 40.332C74.8301 39.9 74.9541 39.368 74.9541 38.736C74.9541 38.112 74.8301 37.584 74.5821 37.152C74.3341 36.72 74.0061 36.4 73.5981 36.192C73.1901 35.976 72.7501 35.868 72.2781 35.868C71.8061 35.868 71.3661 35.976 70.9581 36.192C70.5581 36.4 70.2341 36.72 69.9861 37.152C69.7381 37.584 69.6141 38.112 69.6141 38.736C69.6141 39.368 69.7341 39.9 69.9741 40.332C70.2221 40.764 70.5461 41.088 70.9461 41.304C71.3541 41.512 71.7941 41.616 72.2661 41.616ZM79.3044 42.096C78.5764 42.096 77.9804 41.936 77.5164 41.616C77.0604 41.296 76.8044 40.84 76.7484 40.248H77.3004C77.3404 40.672 77.5324 41.008 77.8764 41.256C78.2284 41.504 78.7044 41.628 79.3044 41.628C79.8004 41.628 80.1924 41.504 80.4804 41.256C80.7764 41 80.9244 40.688 80.9244 40.32C80.9244 40.064 80.8444 39.856 80.6844 39.696C80.5324 39.528 80.3404 39.4 80.1084 39.312C79.8764 39.224 79.5604 39.128 79.1604 39.024C78.6804 38.896 78.2924 38.772 77.9964 38.652C77.7004 38.524 77.4484 38.336 77.2404 38.088C77.0324 37.84 76.9284 37.508 76.9284 37.092C76.9284 36.788 77.0204 36.508 77.2044 36.252C77.3884 35.988 77.6444 35.78 77.9724 35.628C78.3004 35.476 78.6724 35.4 79.0884 35.4C79.7684 35.4 80.3164 35.572 80.7324 35.916C81.1564 36.252 81.3844 36.72 81.4164 37.32H80.8764C80.8524 36.888 80.6844 36.536 80.3724 36.264C80.0604 35.992 79.6284 35.856 79.0764 35.856C78.6124 35.856 78.2284 35.976 77.9244 36.216C77.6204 36.456 77.4684 36.748 77.4684 37.092C77.4684 37.396 77.5524 37.644 77.7204 37.836C77.8964 38.02 78.1084 38.164 78.3564 38.268C78.6124 38.364 78.9484 38.468 79.3644 38.58C79.8204 38.7 80.1844 38.82 80.4564 38.94C80.7364 39.052 80.9724 39.22 81.1644 39.444C81.3564 39.66 81.4524 39.952 81.4524 40.32C81.4524 40.656 81.3604 40.96 81.1764 41.232C80.9924 41.504 80.7364 41.716 80.4084 41.868C80.0804 42.02 79.7124 42.096 79.3044 42.096ZM85.9653 42.096C85.3573 42.096 84.8093 41.96 84.3213 41.688C83.8333 41.416 83.4493 41.028 83.1693 40.524C82.8973 40.012 82.7613 39.416 82.7613 38.736C82.7613 38.064 82.9013 37.476 83.1813 36.972C83.4613 36.46 83.8453 36.072 84.3333 35.808C84.8293 35.536 85.3813 35.4 85.9893 35.4C86.5973 35.4 87.1453 35.536 87.6333 35.808C88.1213 36.072 88.5013 36.456 88.7733 36.96C89.0533 37.464 89.1933 38.056 89.1933 38.736C89.1933 39.416 89.0533 40.012 88.7733 40.524C88.4933 41.028 88.1053 41.416 87.6093 41.688C87.1213 41.96 86.5733 42.096 85.9653 42.096ZM85.9653 41.616C86.4373 41.616 86.8773 41.512 87.2853 41.304C87.7013 41.088 88.0333 40.764 88.2813 40.332C88.5293 39.9 88.6533 39.368 88.6533 38.736C88.6533 38.112 88.5293 37.584 88.2813 37.152C88.0333 36.72 87.7053 36.4 87.2973 36.192C86.8893 35.976 86.4493 35.868 85.9773 35.868C85.5053 35.868 85.0653 35.976 84.6573 36.192C84.2573 36.4 83.9333 36.72 83.6853 37.152C83.4373 37.584 83.3133 38.112 83.3133 38.736C83.3133 39.368 83.4333 39.9 83.6733 40.332C83.9213 40.764 84.2453 41.088 84.6453 41.304C85.0533 41.512 85.4933 41.616 85.9653 41.616Z" fill="#E5E5E5"/>
<line x1="19" y1="25.5" x2="71.0282" y2="25.5" stroke="#7C7777"/>
</svg>
